<mxfile host="65bd71144e">
    <diagram id="jZNvmGKR_am8J_P4emra" name="Page-1">
        <mxGraphModel dx="2875" dy="1293" grid="0" gridSize="10" guides="1" tooltips="1" connect="1" arrows="1" fold="1" page="0" pageScale="1" pageWidth="850" pageHeight="1100" math="0" shadow="0">
            <root>
                <mxCell id="0"/>
                <mxCell id="1" parent="0"/>
                <mxCell id="5" style="edgeStyle=none;html=1;" parent="1" source="4" target="6" edge="1">
                    <mxGeometry relative="1" as="geometry">
                        <mxPoint x="67.12031555175781" y="232.55321502685547" as="targetPoint"/>
                    </mxGeometry>
                </mxCell>
                <mxCell id="4" value="create graph" style="rounded=0;whiteSpace=wrap;html=1;fillColor=#0050ef;fontColor=#ffffff;strokeColor=#001DBC;" parent="1" vertex="1">
                    <mxGeometry x="-137" y="197" width="120" height="60" as="geometry"/>
                </mxCell>
                <mxCell id="8" style="edgeStyle=none;html=1;" parent="1" source="6" target="7" edge="1">
                    <mxGeometry relative="1" as="geometry"/>
                </mxCell>
                <mxCell id="6" value="write relationships" style="rounded=0;whiteSpace=wrap;html=1;fillColor=#0050ef;fontColor=#ffffff;strokeColor=#001DBC;" parent="1" vertex="1">
                    <mxGeometry x="54" y="197" width="120" height="60" as="geometry"/>
                </mxCell>
                <mxCell id="7" value="read relationships" style="rounded=0;whiteSpace=wrap;html=1;fillColor=#0050ef;fontColor=#ffffff;strokeColor=#001DBC;" parent="1" vertex="1">
                    <mxGeometry x="251" y="197" width="120" height="60" as="geometry"/>
                </mxCell>
                <mxCell id="12" style="edgeStyle=none;html=1;" parent="1" source="10" target="11" edge="1">
                    <mxGeometry relative="1" as="geometry"/>
                </mxCell>
                <mxCell id="13" style="edgeStyle=none;html=1;entryX=0;entryY=0.5;entryDx=0;entryDy=0;dashed=1;" parent="1" source="10" target="14" edge="1">
                    <mxGeometry relative="1" as="geometry">
                        <mxPoint x="744.1574554443359" y="285.1458053588867" as="targetPoint"/>
                    </mxGeometry>
                </mxCell>
                <mxCell id="10" value="query" style="rounded=0;whiteSpace=wrap;html=1;fillColor=#0050ef;fontColor=#ffffff;strokeColor=#001DBC;" parent="1" vertex="1">
                    <mxGeometry x="811" y="288" width="120" height="60" as="geometry"/>
                </mxCell>
                <mxCell id="11" value="write redis" style="rounded=0;whiteSpace=wrap;html=1;fillColor=#0050ef;fontColor=#ffffff;strokeColor=#001DBC;" parent="1" vertex="1">
                    <mxGeometry x="1009" y="210" width="120" height="60" as="geometry"/>
                </mxCell>
                <mxCell id="14" value="write relationship" style="rounded=0;whiteSpace=wrap;html=1;fillColor=#0050ef;fontColor=#ffffff;strokeColor=#001DBC;" parent="1" vertex="1">
                    <mxGeometry x="1009" y="363" width="120" height="60" as="geometry"/>
                </mxCell>
                <mxCell id="21" style="edgeStyle=none;html=1;" parent="1" source="15" target="4" edge="1">
                    <mxGeometry relative="1" as="geometry"/>
                </mxCell>
                <mxCell id="27" style="edgeStyle=none;html=1;" parent="1" source="15" target="26" edge="1">
                    <mxGeometry relative="1" as="geometry"/>
                </mxCell>
                <mxCell id="28" style="edgeStyle=none;html=1;" parent="1" source="15" target="24" edge="1">
                    <mxGeometry relative="1" as="geometry"/>
                </mxCell>
                <mxCell id="15" value="k8 job" style="rounded=0;whiteSpace=wrap;html=1;fillColor=#a20025;fontColor=#ffffff;strokeColor=#6F0000;" parent="1" vertex="1">
                    <mxGeometry x="-353" y="199" width="120" height="60" as="geometry"/>
                </mxCell>
                <mxCell id="18" style="edgeStyle=none;html=1;" parent="1" source="17" target="10" edge="1">
                    <mxGeometry relative="1" as="geometry"/>
                </mxCell>
                <mxCell id="17" value="on demand" style="rounded=0;whiteSpace=wrap;html=1;fillColor=#a20025;fontColor=#ffffff;strokeColor=#6F0000;" parent="1" vertex="1">
                    <mxGeometry x="542" y="288" width="120" height="60" as="geometry"/>
                </mxCell>
                <mxCell id="19" value="&lt;h1&gt;Link prediction algo (simple)&lt;/h1&gt;&lt;p&gt;&lt;/p&gt;&lt;ul&gt;&lt;li&gt;need to test speed with lots of users&lt;/li&gt;&lt;li&gt;when do you use this?&lt;/li&gt;&lt;li&gt;https://neo4j.com/docs/graph-data-science/current/algorithms/linkprediction/&lt;br&gt;&lt;/li&gt;&lt;/ul&gt;&lt;p&gt;&lt;/p&gt;" style="text;html=1;strokeColor=#005700;fillColor=#008a00;spacing=5;spacingTop=-20;whiteSpace=wrap;overflow=hidden;rounded=0;fontColor=#ffffff;" parent="1" vertex="1">
                    <mxGeometry x="496" y="17" width="426" height="184" as="geometry"/>
                </mxCell>
                <mxCell id="20" value="&lt;h1&gt;Simularity(mid)&lt;/h1&gt;&lt;p&gt;&lt;/p&gt;&lt;ul&gt;&lt;li&gt;need metrics to trigger k8 job&lt;/li&gt;&lt;ul&gt;&lt;li&gt;track relationships no graphed&lt;/li&gt;&lt;/ul&gt;&lt;li&gt;can&amp;nbsp;weight based off feedback score&lt;/li&gt;&lt;/ul&gt;&lt;div&gt;Call a job every x relationships created.&lt;br&gt;&lt;ul&gt;&lt;li&gt;if job is running already, dont start a new job&lt;/li&gt;&lt;li&gt;write new relationship scores&lt;/li&gt;&lt;li&gt;delete old relationship scores&lt;/li&gt;&lt;/ul&gt;&lt;/div&gt;&lt;p&gt;&lt;/p&gt;" style="text;html=1;strokeColor=#005700;fillColor=#008a00;spacing=5;spacingTop=-20;whiteSpace=wrap;overflow=hidden;rounded=0;fontColor=#ffffff;" parent="1" vertex="1">
                    <mxGeometry x="-242" y="-89" width="533" height="256" as="geometry"/>
                </mxCell>
                <mxCell id="25" style="edgeStyle=none;html=1;" parent="1" source="23" target="24" edge="1">
                    <mxGeometry relative="1" as="geometry"/>
                </mxCell>
                <mxCell id="23" value="&lt;h1&gt;Online learning&lt;/h1&gt;&lt;p&gt;&lt;/p&gt;&lt;ul&gt;&lt;li&gt;feed new relationships to kafka. read the data in batches...&lt;/li&gt;&lt;/ul&gt;&lt;p&gt;&lt;/p&gt;" style="text;html=1;strokeColor=#005700;fillColor=#008a00;spacing=5;spacingTop=-20;whiteSpace=wrap;overflow=hidden;rounded=0;fontColor=#ffffff;" parent="1" vertex="1">
                    <mxGeometry x="-1098" y="561" width="270" height="150" as="geometry"/>
                </mxCell>
                <mxCell id="24" value="&lt;h1&gt;Machine learning (hard)&lt;/h1&gt;&lt;div&gt;Trainging:&lt;/div&gt;&lt;div&gt;&lt;ol&gt;&lt;li&gt;Call job to train the model every x 'event'&lt;/li&gt;&lt;li&gt;Look into other ways&lt;/li&gt;&lt;/ol&gt;&lt;/div&gt;&lt;div&gt;&lt;br&gt;&lt;/div&gt;&lt;div&gt;Link prediction:&lt;/div&gt;&lt;div&gt;&lt;ol&gt;&lt;li&gt;make predictions based off node attributes (age, gender, interests)&lt;/li&gt;&lt;ol&gt;&lt;li&gt;It seems prediction of relationship weight does not exist&lt;/li&gt;&lt;/ol&gt;&lt;/ol&gt;&lt;/div&gt;&lt;p&gt;&lt;/p&gt;" style="text;html=1;strokeColor=#005700;fillColor=#008a00;spacing=5;spacingTop=-20;whiteSpace=wrap;overflow=hidden;rounded=0;fontColor=#ffffff;" parent="1" vertex="1">
                    <mxGeometry x="-592" y="492" width="546" height="270" as="geometry"/>
                </mxCell>
                <mxCell id="26" value="&lt;h1&gt;Priority&lt;/h1&gt;&lt;p&gt;&lt;/p&gt;&lt;ul&gt;&lt;li&gt;Use a centrality alogorithm determin the priority of a node&lt;/li&gt;&lt;ul&gt;&lt;li&gt;https://neo4j.com/docs/graph-data-science/current/algorithms/centrality/&lt;/li&gt;&lt;/ul&gt;&lt;/ul&gt;Trigger:&lt;br&gt;&lt;ul&gt;&lt;li&gt;Every x event&lt;/li&gt;&lt;li&gt;write new centrality&amp;nbsp;score to nodes&lt;/li&gt;&lt;li&gt;delete old centrality scores from nodes&lt;/li&gt;&lt;/ul&gt;&lt;div&gt;Use to predict the centrality of a node:&lt;/div&gt;&lt;div&gt;&lt;ol&gt;&lt;li&gt;socketio on ready. request the nodes centrality and give queue priority based off that&lt;/li&gt;&lt;/ol&gt;&lt;/div&gt;&lt;p&gt;&lt;/p&gt;" style="text;html=1;strokeColor=#005700;fillColor=#008a00;spacing=5;spacingTop=-20;whiteSpace=wrap;overflow=hidden;rounded=0;fontColor=#ffffff;" parent="1" vertex="1">
                    <mxGeometry x="-1085" y="-23" width="518" height="371" as="geometry"/>
                </mxCell>
                <mxCell id="29" value="&lt;h1&gt;Flow&lt;/h1&gt;&lt;ol&gt;&lt;li&gt;Ask user aattrivutes&lt;/li&gt;&lt;li&gt;no link scores&lt;/li&gt;&lt;ol&gt;&lt;li&gt;make predictions based off ML models&lt;/li&gt;&lt;li&gt;(possibly use link precition algos. might cost more than just running jobs...)&lt;/li&gt;&lt;li&gt;link with others who are new&lt;/li&gt;&lt;/ol&gt;&lt;li&gt;existing scores&lt;/li&gt;&lt;ol&gt;&lt;li&gt;user combination of relscore and ml predictions&lt;/li&gt;&lt;/ol&gt;&lt;/ol&gt;&lt;div&gt;&lt;br&gt;&lt;/div&gt;&lt;div&gt;&lt;br&gt;&lt;/div&gt;&lt;div&gt;&lt;br&gt;&lt;/div&gt;&lt;div&gt;Feedback:&lt;/div&gt;&lt;div&gt;&lt;ol&gt;&lt;li&gt;ask for score&lt;/li&gt;&lt;li&gt;ask for attributes&lt;/li&gt;&lt;ol&gt;&lt;li&gt;link possible attributes from:&lt;/li&gt;&lt;ol&gt;&lt;li&gt;ml prediction (confirm attributes)&lt;/li&gt;&lt;li&gt;user entered attributes to verify authenticity&lt;/li&gt;&lt;/ol&gt;&lt;/ol&gt;&lt;/ol&gt;&lt;/div&gt;&lt;div&gt;&lt;br&gt;&lt;/div&gt;&lt;div&gt;&lt;br&gt;&lt;/div&gt;&lt;span style=&quot;background-color: initial;&quot;&gt;&lt;div&gt;&lt;br&gt;&lt;/div&gt;&lt;div&gt;&lt;br&gt;&lt;/div&gt;&lt;/span&gt;&lt;div&gt;&lt;/div&gt;&lt;p&gt;&lt;/p&gt;" style="text;html=1;strokeColor=#006EAF;fillColor=#1ba1e2;spacing=5;spacingTop=-20;whiteSpace=wrap;overflow=hidden;rounded=0;fontColor=#ffffff;" parent="1" vertex="1">
                    <mxGeometry x="240" y="506" width="756" height="379" as="geometry"/>
                </mxCell>
                <mxCell id="30" value="&lt;h1&gt;Score&lt;/h1&gt;&lt;p&gt;- should be a value [-1.1]&lt;/p&gt;" style="text;html=1;strokeColor=#6F0000;fillColor=#FF8000;spacing=5;spacingTop=-20;whiteSpace=wrap;overflow=hidden;rounded=0;fontColor=#ffffff;" vertex="1" parent="1">
                    <mxGeometry x="1251" y="56" width="190" height="120" as="geometry"/>
                </mxCell>
            </root>
        </mxGraphModel>
    </diagram>
</mxfile>